# xmcd
#
# Track frame offsets:
#	150
#	15592
#	31572
#	47974
#	65587
#	84021
#	102716
#	120202
#	136900
#	156743
#
# Disc length: 2313 seconds
#
# Revision: 1
# Processed by: cddbd v1.5.1PL0 Copyright (c) Steve Scherf et al.
# Submitted via: audiograbber 1.83.01
#
DISCID=7909070a
DTITLE=ТТ. - (2001) - Карнавал.
DYEAR=1900
DGENRE=
TTITLE0=Карнавал.
TTITLE1=Потерянный рай.
TTITLE2=Девченки едут на юг.
TTITLE3=Эта ночь.
TTITLE4=Забытая история.
TTITLE5=Пиф-паф.
TTITLE6=Улетаю.
TTITLE7=Голая любовь.
TTITLE8=Пай-мальчик.
TTITLE9=Тик-так.
EXTD=
EXTT0=
EXTT1=
EXTT2=
EXTT3=
EXTT4=
EXTT5=
EXTT6=
EXTT7=
EXTT8=
EXTT9=
PLAYORDER=
